<svg xmlns="http://www.w3.org/2000/svg" viewBox="0 0 64 64" role="img" aria-label="MyFC">
  <title>MyFC</title>
  <defs>
    <linearGradient id="myfc-blue" x1="0" y1="0" x2="1" y2="1">
      <stop offset="0" stop-color="#29c8ff" />
      <stop offset="1" stop-color="#1d2c82" />
    </linearGradient>
    <linearGradient id="myfc-purple" x1="0" y1="0" x2="1" y2="1">
      <stop offset="0" stop-color="#9164e8" />
      <stop offset="1" stop-color="#493789" />
    </linearGradient>
  </defs>
  <path fill="url(#myfc-blue)" d="M3 3h58v58H3z" />
  <path fill="#1c2f83" d="M37 3h24v58H37z" opacity=".92" />
  <path fill="url(#myfc-purple)" d="M16 48c0-14 8-29 17-29 7 0 12 5 12 12 0 8-7 13-15 13-5 0-10 2-14 4z" />
  <path fill="#c985d3" d="M20 46c4-12 10-21 17-21 5 0 9 4 9 9 0 5-4 8-10 8-7 0-11 2-16 4z" opacity=".55" />
</svg>
